<svg width="629" height="542" viewBox="0 0 629 542" fill="none" xmlns="http://www.w3.org/2000/svg">
<rect x="2" y="2" width="625" height="538" fill="#B4F8C8" stroke="black" stroke-width="4"/>
<mask id="path-2-outside-1_1416_24" maskUnits="userSpaceOnUse" x="77" y="141" width="474" height="302" fill="black">
<rect fill="white" x="77" y="141" width="474" height="302"/>
<path d="M87.3 261.1C96.9 261.1 103.7 258.8 107.7 254.2C111.7 249.6 113.7 241.9 113.7 231.1V181.6C113.7 169.4 116.6 159.8 122.4 152.8C128.4 145.8 136.4 142.3 146.4 142.3H174V162.1H155.1C147.7 162.1 142.7 163.5 140.1 166.3C137.5 168.9 136.2 174.1 136.2 181.9V229.9C136.2 242.1 134.3 251.1 130.5 256.9C126.9 262.7 119.8 267.4 109.2 271C119.8 274.4 126.9 279.1 130.5 285.1C134.3 291.1 136.2 300.2 136.2 312.4V360.4C136.2 368.2 137.5 373.4 140.1 376C142.7 378.8 147.7 380.2 155.1 380.2H174V400H146.4C136.4 400 128.4 396.5 122.4 389.5C116.6 382.5 113.7 372.9 113.7 360.7V311.2C113.7 300.4 111.7 292.7 107.7 288.1C103.7 283.3 96.9 280.9 87.3 280.9H78.9V261.1H87.3ZM318.649 196.3V166.3H348.649V196.3H318.649ZM321.049 386.5V239.2H258.049V218.8H345.949V392.5C345.949 407.9 341.149 419.9 331.549 428.5C321.949 437.1 307.949 441.4 289.549 441.4C282.749 441.4 276.149 441.1 269.749 440.5C263.349 440.1 257.449 439.2 252.049 437.8V415.9C258.249 417.1 264.449 417.9 270.649 418.3C277.049 418.9 282.949 419.2 288.349 419.2C300.149 419.2 308.549 416.6 313.549 411.4C318.549 406.4 321.049 398.1 321.049 386.5ZM540.998 281.2C531.398 281.2 524.598 283.5 520.598 288.1C516.598 292.7 514.598 300.4 514.598 311.2V360.7C514.598 372.9 511.598 382.5 505.598 389.5C499.798 396.5 491.898 400 481.898 400H454.298V380.2H473.198C480.598 380.2 485.598 378.8 488.198 376C490.798 373.4 492.098 368.2 492.098 360.4V312.4C492.098 300.2 493.998 291.2 497.798 285.4C501.598 279.6 508.698 274.9 519.098 271.3C508.698 267.9 501.598 263.2 497.798 257.2C493.998 251.2 492.098 242.1 492.098 229.9V181.9C492.098 174.1 490.798 168.9 488.198 166.3C485.598 163.5 480.598 162.1 473.198 162.1H454.298V142.3H481.898C491.898 142.3 499.798 145.8 505.598 152.8C511.598 159.8 514.598 169.4 514.598 181.6V231.1C514.598 241.9 516.598 249.7 520.598 254.5C524.598 259.1 531.398 261.4 540.998 261.4H549.398V281.2H540.998Z"/>
</mask>
<path d="M87.3 261.1C96.9 261.1 103.7 258.8 107.7 254.2C111.7 249.6 113.7 241.9 113.7 231.1V181.6C113.7 169.4 116.6 159.8 122.4 152.8C128.4 145.8 136.4 142.3 146.4 142.3H174V162.1H155.1C147.7 162.1 142.7 163.5 140.1 166.3C137.5 168.9 136.2 174.1 136.2 181.9V229.9C136.2 242.1 134.3 251.1 130.5 256.9C126.9 262.7 119.8 267.4 109.2 271C119.8 274.4 126.9 279.1 130.5 285.1C134.3 291.1 136.2 300.2 136.2 312.4V360.4C136.2 368.2 137.5 373.4 140.1 376C142.7 378.8 147.7 380.2 155.1 380.2H174V400H146.4C136.4 400 128.4 396.5 122.4 389.5C116.6 382.5 113.7 372.9 113.7 360.7V311.2C113.7 300.4 111.7 292.7 107.7 288.1C103.7 283.3 96.9 280.9 87.3 280.9H78.9V261.1H87.3ZM318.649 196.3V166.3H348.649V196.3H318.649ZM321.049 386.5V239.2H258.049V218.8H345.949V392.5C345.949 407.9 341.149 419.9 331.549 428.5C321.949 437.1 307.949 441.4 289.549 441.4C282.749 441.4 276.149 441.1 269.749 440.5C263.349 440.1 257.449 439.2 252.049 437.8V415.9C258.249 417.1 264.449 417.9 270.649 418.3C277.049 418.9 282.949 419.2 288.349 419.2C300.149 419.2 308.549 416.6 313.549 411.4C318.549 406.4 321.049 398.1 321.049 386.5ZM540.998 281.2C531.398 281.2 524.598 283.5 520.598 288.1C516.598 292.7 514.598 300.4 514.598 311.2V360.7C514.598 372.9 511.598 382.5 505.598 389.5C499.798 396.5 491.898 400 481.898 400H454.298V380.2H473.198C480.598 380.2 485.598 378.8 488.198 376C490.798 373.4 492.098 368.2 492.098 360.4V312.4C492.098 300.2 493.998 291.2 497.798 285.4C501.598 279.6 508.698 274.9 519.098 271.3C508.698 267.9 501.598 263.2 497.798 257.2C493.998 251.2 492.098 242.1 492.098 229.9V181.9C492.098 174.1 490.798 168.9 488.198 166.3C485.598 163.5 480.598 162.1 473.198 162.1H454.298V142.3H481.898C491.898 142.3 499.798 145.8 505.598 152.8C511.598 159.8 514.598 169.4 514.598 181.6V231.1C514.598 241.9 516.598 249.7 520.598 254.5C524.598 259.1 531.398 261.4 540.998 261.4H549.398V281.2H540.998Z" fill="black"/>
<path d="M122.4 152.8L121.641 152.149L121.635 152.156L121.63 152.162L122.4 152.8ZM174 142.3H175V141.3H174V142.3ZM174 162.1V163.1H175V162.1H174ZM140.1 166.3L140.807 167.007L140.82 166.994L140.833 166.98L140.1 166.3ZM130.5 256.9L129.664 256.352L129.657 256.362L129.65 256.373L130.5 256.9ZM109.2 271L108.878 270.053L106.01 271.027L108.895 271.952L109.2 271ZM130.5 285.1L129.643 285.614L129.649 285.625L129.655 285.635L130.5 285.1ZM140.1 376L140.833 375.32L140.82 375.306L140.807 375.293L140.1 376ZM174 380.2H175V379.2H174V380.2ZM174 400V401H175V400H174ZM122.4 389.5L121.63 390.138L121.635 390.144L121.641 390.151L122.4 389.5ZM107.7 288.1L106.932 288.74L106.939 288.748L106.945 288.756L107.7 288.1ZM78.9 280.9H77.9V281.9H78.9V280.9ZM78.9 261.1V260.1H77.9V261.1H78.9ZM87.3 261.1V262.1C97.0247 262.1 104.178 259.774 108.455 254.856L107.7 254.2L106.945 253.544C103.222 257.826 96.7753 260.1 87.3 260.1V261.1ZM107.7 254.2L108.455 254.856C112.696 249.978 114.7 241.973 114.7 231.1H113.7H112.7C112.7 241.827 110.704 249.222 106.945 253.544L107.7 254.2ZM113.7 231.1H114.7V181.6H113.7H112.7V231.1H113.7ZM113.7 181.6H114.7C114.7 169.553 117.563 160.205 123.17 153.438L122.4 152.8L121.63 152.162C115.637 159.395 112.7 169.247 112.7 181.6H113.7ZM122.4 152.8L123.159 153.451C128.952 146.693 136.664 143.3 146.4 143.3V142.3V141.3C136.136 141.3 127.848 144.907 121.641 152.149L122.4 152.8ZM146.4 142.3V143.3H174V142.3V141.3H146.4V142.3ZM174 142.3H173V162.1H174H175V142.3H174ZM174 162.1V161.1H155.1V162.1V163.1H174V162.1ZM155.1 162.1V161.1C147.654 161.1 142.271 162.492 139.367 165.62L140.1 166.3L140.833 166.98C143.129 164.508 147.746 163.1 155.1 163.1V162.1ZM140.1 166.3L139.393 165.593C137.919 167.067 136.88 169.207 136.205 171.907C135.528 174.614 135.2 177.952 135.2 181.9H136.2H137.2C137.2 178.048 137.522 174.886 138.145 172.393C138.77 169.893 139.681 168.133 140.807 167.007L140.1 166.3ZM136.2 181.9H135.2V229.9H136.2H137.2V181.9H136.2ZM136.2 229.9H135.2C135.2 242.035 133.303 250.797 129.664 256.352L130.5 256.9L131.336 257.448C135.297 251.403 137.2 242.165 137.2 229.9H136.2ZM130.5 256.9L129.65 256.373C126.229 261.884 119.389 266.483 108.878 270.053L109.2 271L109.522 271.947C120.211 268.317 127.571 263.516 131.35 257.427L130.5 256.9ZM109.2 271L108.895 271.952C119.393 275.32 126.223 279.915 129.643 285.614L130.5 285.1L131.358 284.586C127.577 278.285 120.207 273.48 109.505 270.048L109.2 271ZM130.5 285.1L129.655 285.635C133.305 291.397 135.2 300.269 135.2 312.4H136.2H137.2C137.2 300.131 135.295 290.803 131.345 284.565L130.5 285.1ZM136.2 312.4H135.2V360.4H136.2H137.2V312.4H136.2ZM136.2 360.4H135.2C135.2 364.348 135.528 367.686 136.205 370.393C136.88 373.093 137.919 375.233 139.393 376.707L140.1 376L140.807 375.293C139.681 374.167 138.77 372.407 138.145 369.907C137.522 367.414 137.2 364.252 137.2 360.4H136.2ZM140.1 376L139.367 376.68C142.271 379.808 147.654 381.2 155.1 381.2V380.2V379.2C147.746 379.2 143.129 377.792 140.833 375.32L140.1 376ZM155.1 380.2V381.2H174V380.2V379.2H155.1V380.2ZM174 380.2H173V400H174H175V380.2H174ZM174 400V399H146.4V400V401H174V400ZM146.4 400V399C136.664 399 128.952 395.607 123.159 388.849L122.4 389.5L121.641 390.151C127.848 397.393 136.136 401 146.4 401V400ZM122.4 389.5L123.17 388.862C117.563 382.095 114.7 372.747 114.7 360.7H113.7H112.7C112.7 373.053 115.637 382.905 121.63 390.138L122.4 389.5ZM113.7 360.7H114.7V311.2H113.7H112.7V360.7H113.7ZM113.7 311.2H114.7C114.7 300.327 112.696 292.322 108.455 287.444L107.7 288.1L106.945 288.756C110.704 293.078 112.7 300.473 112.7 311.2H113.7ZM107.7 288.1L108.468 287.46C104.195 282.332 97.0363 279.9 87.3 279.9V280.9V281.9C96.7637 281.9 103.205 284.268 106.932 288.74L107.7 288.1ZM87.3 280.9V279.9H78.9V280.9V281.9H87.3V280.9ZM78.9 280.9H79.9V261.1H78.9H77.9V280.9H78.9ZM78.9 261.1V262.1H87.3V261.1V260.1H78.9V261.1ZM318.649 196.3H317.649V197.3H318.649V196.3ZM318.649 166.3V165.3H317.649V166.3H318.649ZM348.649 166.3H349.649V165.3H348.649V166.3ZM348.649 196.3V197.3H349.649V196.3H348.649ZM321.049 239.2H322.049V238.2H321.049V239.2ZM258.049 239.2H257.049V240.2H258.049V239.2ZM258.049 218.8V217.8H257.049V218.8H258.049ZM345.949 218.8H346.949V217.8H345.949V218.8ZM331.549 428.5L332.216 429.245L332.216 429.245L331.549 428.5ZM269.749 440.5L269.843 439.504L269.827 439.503L269.812 439.502L269.749 440.5ZM252.049 437.8H251.049V438.574L251.798 438.768L252.049 437.8ZM252.049 415.9L252.239 414.918L251.049 414.688V415.9H252.049ZM270.649 418.3L270.743 417.304L270.728 417.303L270.714 417.302L270.649 418.3ZM313.549 411.4L312.842 410.693L312.835 410.7L312.828 410.707L313.549 411.4ZM318.649 196.3H319.649V166.3H318.649H317.649V196.3H318.649ZM318.649 166.3V167.3H348.649V166.3V165.3H318.649V166.3ZM348.649 166.3H347.649V196.3H348.649H349.649V166.3H348.649ZM348.649 196.3V195.3H318.649V196.3V197.3H348.649V196.3ZM321.049 386.5H322.049V239.2H321.049H320.049V386.5H321.049ZM321.049 239.2V238.2H258.049V239.2V240.2H321.049V239.2ZM258.049 239.2H259.049V218.8H258.049H257.049V239.2H258.049ZM258.049 218.8V219.8H345.949V218.8V217.8H258.049V218.8ZM345.949 218.8H344.949V392.5H345.949H346.949V218.8H345.949ZM345.949 392.5H344.949C344.949 407.676 340.229 419.382 330.882 427.755L331.549 428.5L332.216 429.245C342.069 420.418 346.949 408.124 346.949 392.5H345.949ZM331.549 428.5L330.882 427.755C321.531 436.132 307.807 440.4 289.549 440.4V441.4V442.4C308.091 442.4 322.368 438.068 332.216 429.245L331.549 428.5ZM289.549 441.4V440.4C282.779 440.4 276.21 440.101 269.843 439.504L269.749 440.5L269.656 441.496C276.089 442.099 282.72 442.4 289.549 442.4V441.4ZM269.749 440.5L269.812 439.502C263.466 439.105 257.63 438.214 252.3 436.832L252.049 437.8L251.798 438.768C257.268 440.186 263.232 441.095 269.687 441.498L269.749 440.5ZM252.049 437.8H253.049V415.9H252.049H251.049V437.8H252.049ZM252.049 415.9L251.859 416.882C258.1 418.09 264.342 418.895 270.585 419.298L270.649 418.3L270.714 417.302C264.556 416.905 258.398 416.11 252.239 414.918L252.049 415.9ZM270.649 418.3L270.556 419.296C276.981 419.898 282.913 420.2 288.349 420.2V419.2V418.2C282.986 418.2 277.117 417.902 270.743 417.304L270.649 418.3ZM288.349 419.2V420.2C300.255 420.2 308.991 417.583 314.27 412.093L313.549 411.4L312.828 410.707C308.107 415.617 300.043 418.2 288.349 418.2V419.2ZM313.549 411.4L314.256 412.107C319.534 406.83 322.049 398.203 322.049 386.5H321.049H320.049C320.049 397.997 317.565 405.97 312.842 410.693L313.549 411.4ZM520.598 288.1L519.844 287.444L519.844 287.444L520.598 288.1ZM505.598 389.5L504.839 388.849L504.834 388.856L504.828 388.862L505.598 389.5ZM454.298 400H453.298V401H454.298V400ZM454.298 380.2V379.2H453.298V380.2H454.298ZM488.198 376L487.491 375.293L487.478 375.306L487.466 375.32L488.198 376ZM497.798 285.4L496.962 284.852L496.962 284.852L497.798 285.4ZM519.098 271.3L519.426 272.245L522.234 271.273L519.409 270.35L519.098 271.3ZM497.798 257.2L496.954 257.735L496.954 257.735L497.798 257.2ZM488.198 166.3L487.466 166.98L487.478 166.994L487.491 167.007L488.198 166.3ZM454.298 162.1H453.298V163.1H454.298V162.1ZM454.298 142.3V141.3H453.298V142.3H454.298ZM505.598 152.8L504.828 153.438L504.834 153.444L504.839 153.451L505.598 152.8ZM520.598 254.5L519.83 255.14L519.837 255.148L519.844 255.156L520.598 254.5ZM549.398 261.4H550.398V260.4H549.398V261.4ZM549.398 281.2V282.2H550.398V281.2H549.398ZM540.998 281.2V280.2C531.274 280.2 524.12 282.526 519.844 287.444L520.598 288.1L521.353 288.756C525.077 284.474 531.523 282.2 540.998 282.2V281.2ZM520.598 288.1L519.844 287.444C515.602 292.322 513.598 300.327 513.598 311.2H514.598H515.598C515.598 300.473 517.595 293.078 521.353 288.756L520.598 288.1ZM514.598 311.2H513.598V360.7H514.598H515.598V311.2H514.598ZM514.598 360.7H513.598C513.598 372.739 510.64 382.082 504.839 388.849L505.598 389.5L506.358 390.151C512.557 382.918 515.598 373.061 515.598 360.7H514.598ZM505.598 389.5L504.828 388.862C499.239 395.608 491.634 399 481.898 399V400V401C492.162 401 500.358 397.392 506.368 390.138L505.598 389.5ZM481.898 400V399H454.298V400V401H481.898V400ZM454.298 400H455.298V380.2H454.298H453.298V400H454.298ZM454.298 380.2V381.2H473.198V380.2V379.2H454.298V380.2ZM473.198 380.2V381.2C480.644 381.2 486.027 379.808 488.931 376.68L488.198 376L487.466 375.32C485.17 377.792 480.553 379.2 473.198 379.2V380.2ZM488.198 376L488.906 376.707C490.379 375.233 491.419 373.093 492.094 370.393C492.77 367.686 493.098 364.348 493.098 360.4H492.098H491.098C491.098 364.252 490.777 367.414 490.153 369.907C489.528 372.407 488.617 374.167 487.491 375.293L488.198 376ZM492.098 360.4H493.098V312.4H492.098H491.098V360.4H492.098ZM492.098 312.4H493.098C493.098 300.265 494.995 291.503 498.635 285.948L497.798 285.4L496.962 284.852C493.001 290.897 491.098 300.135 491.098 312.4H492.098ZM497.798 285.4L498.635 285.948C502.261 280.414 509.12 275.812 519.426 272.245L519.098 271.3L518.771 270.355C508.277 273.988 500.936 278.786 496.962 284.852L497.798 285.4ZM519.098 271.3L519.409 270.35C509.116 266.985 502.267 262.387 498.643 256.665L497.798 257.2L496.954 257.735C500.93 264.013 508.28 268.815 518.788 272.25L519.098 271.3ZM497.798 257.2L498.643 256.665C494.994 250.903 493.098 242.031 493.098 229.9H492.098H491.098C491.098 242.169 493.003 251.497 496.954 257.735L497.798 257.2ZM492.098 229.9H493.098V181.9H492.098H491.098V229.9H492.098ZM492.098 181.9H493.098C493.098 177.952 492.77 174.614 492.094 171.907C491.419 169.207 490.379 167.067 488.906 165.593L488.198 166.3L487.491 167.007C488.617 168.133 489.528 169.893 490.153 172.393C490.777 174.886 491.098 178.048 491.098 181.9H492.098ZM488.198 166.3L488.931 165.62C486.027 162.492 480.644 161.1 473.198 161.1V162.1V163.1C480.553 163.1 485.17 164.508 487.466 166.98L488.198 166.3ZM473.198 162.1V161.1H454.298V162.1V163.1H473.198V162.1ZM454.298 162.1H455.298V142.3H454.298H453.298V162.1H454.298ZM454.298 142.3V143.3H481.898V142.3V141.3H454.298V142.3ZM481.898 142.3V143.3C491.634 143.3 499.239 146.692 504.828 153.438L505.598 152.8L506.368 152.162C500.358 144.908 492.162 141.3 481.898 141.3V142.3ZM505.598 152.8L504.839 153.451C510.64 160.218 513.598 169.561 513.598 181.6H514.598H515.598C515.598 169.239 512.557 159.382 506.358 152.149L505.598 152.8ZM514.598 181.6H513.598V231.1H514.598H515.598V181.6H514.598ZM514.598 231.1H513.598C513.598 241.979 515.605 250.07 519.83 255.14L520.598 254.5L521.367 253.86C517.592 249.33 515.598 241.821 515.598 231.1H514.598ZM520.598 254.5L519.844 255.156C524.12 260.074 531.274 262.4 540.998 262.4V261.4V260.4C531.523 260.4 525.077 258.126 521.353 253.844L520.598 254.5ZM540.998 261.4V262.4H549.398V261.4V260.4H540.998V261.4ZM549.398 261.4H548.398V281.2H549.398H550.398V261.4H549.398ZM549.398 281.2V280.2H540.998V281.2V282.2H549.398V281.2Z" fill="black" mask="url(#path-2-outside-1_1416_24)"/>
</svg>
